<svg width="107" height="38" viewBox="0 0 107 38" fill="none" xmlns="http://www.w3.org/2000/svg">
<path d="M0 25.6638V0.00474548H3.54583V23.0983H10.0385V25.6638H0Z" fill="black"/>
<path d="M12.4563 25.6634V0.00441742H22.3068V2.66702H15.9977V11.1582H21.1088V13.6928H15.9977V23.1024H22.3636V25.6679H12.4563V25.6634Z" fill="black"/>
<path d="M32.3409 25.6634L32.8131 0.00441742H36.2934L40.7792 20.8195L45.2957 0.00441742H48.7453L49.2175 25.6679H46.3625L46.0783 7.03846L41.7804 25.6679H39.7736L35.5064 7.03846L35.2222 25.6679H32.3409V25.6634Z" fill="black"/>
<path d="M51.7271 25.6634L57.1223 0H60.5414L65.9672 25.6634H62.6094L61.4508 19.199H56.2741L55.0499 25.6634H51.7271ZM56.7463 16.638H60.983L58.8493 5.07352L56.7463 16.638Z" fill="black"/>
<path d="M68.1008 17.3974V14.832H75.0963V17.3974H68.1008Z" fill="black"/>
<path d="M78.6115 25.6634V0.00441742H82.1574V12.1076L87.9942 0.00441742H91.2865L86.2672 11.3128L92.104 25.6634H88.6544L83.7926 13.6265L82.1617 16.6026V25.6634H78.6115Z" fill="black"/>
<path d="M92.7599 25.6634L98.1551 0H101.574L107 25.6634H103.642L102.484 19.199H97.3069L96.0827 25.6634H92.7599ZM97.7791 16.638H102.016L99.8821 5.07352L97.7791 16.638Z" fill="black"/>
<path d="M19.6048 33.0463H20.8159C21.3624 33.0463 21.7603 33.139 22.0139 33.3245C22.2674 33.5099 22.3986 33.7925 22.3986 34.1723C22.3986 34.4284 22.3199 34.6448 22.1669 34.817C22.0095 34.9892 21.7821 35.0996 21.4848 35.1481V35.1658C21.8346 35.2188 22.0969 35.3292 22.2631 35.5014C22.4292 35.6736 22.5123 35.912 22.5123 36.2167C22.5123 36.6274 22.3767 36.9409 22.11 37.1616C21.8433 37.3824 21.4586 37.4928 20.9645 37.4928H19.6135V33.0463H19.6048ZM19.9108 35.0289H20.8815C21.2968 35.0289 21.5985 34.9583 21.7865 34.8214C21.9745 34.6845 22.0663 34.4637 22.0663 34.1679C22.0663 33.872 21.9614 33.6557 21.7472 33.5232C21.5329 33.3907 21.2181 33.3201 20.7984 33.3201H19.9108V35.0289ZM19.9108 35.3027V37.2235H20.9471C21.7646 37.2235 22.1713 36.8879 22.1713 36.2167C22.1713 35.6074 21.7428 35.2983 20.8815 35.2983H19.9108V35.3027Z" fill="black"/>
<path d="M29.1842 33.0463V35.9253C29.1842 36.4375 29.0356 36.8349 28.7426 37.1263C28.4497 37.4133 28.0387 37.559 27.514 37.559C27.0025 37.559 26.6046 37.4133 26.3204 37.1263C26.0319 36.8349 25.892 36.4331 25.892 35.9164V33.0463H26.2024V35.9253C26.2024 36.3536 26.3204 36.6892 26.5565 36.9276C26.7926 37.1661 27.1249 37.2853 27.5534 37.2853C27.9731 37.2853 28.301 37.1661 28.5284 36.932C28.7601 36.698 28.8738 36.3713 28.8738 35.9562V33.0463H29.1842Z" fill="black"/>
<path d="M35.2615 37.4972H32.8524V33.0463H35.2615V33.3333H33.1585V35.0157H35.1435V35.3027H33.1585V37.2102H35.2615V37.4972Z" fill="black"/>
<path d="M41.9378 37.4972H41.6274L39.0172 33.5453H38.991C39.0172 34.0177 39.026 34.371 39.026 34.6094V37.4972H38.7287V33.0463H39.0347L41.6405 36.9939H41.658C41.6405 36.6274 41.6318 36.2829 41.6318 35.9518V33.0463H41.9291V37.4972H41.9378Z" fill="black"/>
<path d="M49.3574 35.2674C49.3574 35.9739 49.1825 36.5346 48.8327 36.9453C48.4829 37.3559 48.002 37.5635 47.3855 37.5635C46.7734 37.5635 46.2925 37.3559 45.9427 36.9453C45.5929 36.5346 45.4181 35.9739 45.4181 35.2629C45.4181 34.5564 45.5929 33.9957 45.9471 33.5894C46.3012 33.1832 46.7822 32.9801 47.3943 32.9801C48.0108 32.9801 48.4917 33.1832 48.8371 33.5938C49.1869 34.0001 49.3574 34.5564 49.3574 35.2674ZM45.7547 35.2674C45.7547 35.9032 45.8946 36.3977 46.1788 36.7466C46.4586 37.0954 46.8652 37.2676 47.3899 37.2676C47.9189 37.2676 48.3255 37.0954 48.6054 36.751C48.8852 36.4066 49.0251 35.912 49.0251 35.2674C49.0251 34.6271 48.8852 34.1326 48.6054 33.7926C48.3255 33.4526 47.9233 33.2803 47.3943 33.2803C46.8696 33.2803 46.4674 33.4525 46.1788 33.797C45.8946 34.1414 45.7547 34.6315 45.7547 35.2674Z" fill="black"/>
<path d="M55.2729 36.3492C55.2729 36.7201 55.1374 37.0159 54.8663 37.2323C54.5952 37.4487 54.2367 37.5591 53.7864 37.5591C53.2486 37.5591 52.8332 37.4972 52.549 37.378V37.0689C52.8682 37.2058 53.2704 37.272 53.7645 37.272C54.1274 37.272 54.4116 37.1881 54.6258 37.0204C54.8357 36.8526 54.945 36.6318 54.945 36.3624C54.945 36.1946 54.91 36.0533 54.8401 35.9429C54.7701 35.8326 54.6564 35.731 54.4947 35.6383C54.3329 35.5455 54.1012 35.4484 53.7951 35.3424C53.3448 35.1879 53.0344 35.0157 52.8638 34.8346C52.6933 34.6536 52.6059 34.4107 52.6059 34.1105C52.6059 33.7793 52.737 33.5055 52.995 33.298C53.253 33.0861 53.5852 32.9845 53.9919 32.9845C54.4072 32.9845 54.7963 33.064 55.1592 33.2229L55.0456 33.4923C54.6783 33.3377 54.3285 33.2627 53.9962 33.2627C53.6727 33.2627 53.4104 33.3377 53.218 33.4923C53.0256 33.6424 52.9294 33.85 52.9294 34.1149C52.9294 34.2783 52.96 34.4152 53.0169 34.5211C53.0781 34.6271 53.1743 34.7198 53.3098 34.8037C53.4453 34.8876 53.6771 34.9892 54.005 35.1084C54.3504 35.2276 54.6083 35.3424 54.7788 35.4572C54.9537 35.572 55.0762 35.6957 55.1592 35.8414C55.2336 35.9739 55.2729 36.1461 55.2729 36.3492Z" fill="black"/>
<path d="M64.8698 35.9253H63.0773L62.4608 37.4972H62.1198L63.8905 33.0287H64.0872L65.823 37.4972H65.4776L64.8698 35.9253ZM63.1909 35.6471H64.7693L64.1703 34.0442C64.1222 33.9162 64.061 33.744 63.991 33.5188C63.9386 33.7131 63.8774 33.8897 63.8118 34.0487L63.1909 35.6471Z" fill="black"/>
<path d="M68.9228 37.4972V33.0463H69.2289V37.4972H68.9228Z" fill="black"/>
<path d="M73.2556 35.5588V37.4972H72.9496V33.0463H73.9989C74.5454 33.0463 74.9477 33.1479 75.21 33.351C75.4723 33.5541 75.6035 33.8632 75.6035 34.2738C75.6035 34.5741 75.5248 34.8258 75.3718 35.0289C75.2144 35.232 74.9783 35.3822 74.6635 35.4705L75.8614 37.4972H75.4942L74.3574 35.5588H73.2556ZM73.2556 35.2894H74.0951C74.4667 35.2894 74.7553 35.2055 74.9608 35.0377C75.1663 34.87 75.2668 34.6227 75.2668 34.2959C75.2668 33.9559 75.1663 33.7087 74.9652 33.5541C74.764 33.3996 74.4361 33.3245 73.9814 33.3245H73.2513V35.2894H73.2556Z" fill="black"/>
<path d="M81.4972 37.4972H79.0881V33.0463H81.4972V33.3333H79.3942V35.0157H81.3791V35.3027H79.3942V37.2102H81.4972V37.4972Z" fill="black"/>
<path d="M87.3996 36.3492C87.3996 36.7201 87.2641 37.0159 86.993 37.2323C86.7219 37.4487 86.3634 37.5591 85.9131 37.5591C85.3753 37.5591 84.9599 37.4972 84.6758 37.378V37.0689C84.9949 37.2058 85.3972 37.272 85.8912 37.272C86.2541 37.272 86.5383 37.1881 86.7525 37.0204C86.9624 36.8526 87.0717 36.6318 87.0717 36.3624C87.0717 36.1946 87.0367 36.0533 86.9668 35.9429C86.8968 35.8326 86.7831 35.731 86.6214 35.6383C86.4596 35.5455 86.2279 35.4484 85.9218 35.3424C85.4715 35.1879 85.1611 35.0157 84.9905 34.8346C84.82 34.6536 84.7326 34.4107 84.7326 34.1105C84.7326 33.7793 84.8638 33.5055 85.1217 33.298C85.3797 33.0905 85.712 32.9845 86.1186 32.9845C86.5339 32.9845 86.923 33.064 87.2859 33.2229L87.1723 33.4923C86.805 33.3377 86.4552 33.2627 86.1229 33.2627C85.7994 33.2627 85.5371 33.3377 85.3447 33.4923C85.1523 33.6424 85.0561 33.85 85.0561 34.1149C85.0561 34.2783 85.0867 34.4152 85.1436 34.5211C85.2004 34.6271 85.301 34.7198 85.4365 34.8037C85.572 34.8876 85.8038 34.9892 86.1317 35.1084C86.4771 35.2276 86.735 35.3424 86.9056 35.4572C87.0804 35.572 87.2029 35.6957 87.2859 35.8414C87.3559 35.9739 87.3996 36.1461 87.3996 36.3492Z" fill="black"/>
<path d="M15.5474 35.2674H0.253571" stroke="black" stroke-width="0.5" stroke-miterlimit="10"/>
<path d="M105.942 35.0466H90.6481" stroke="black" stroke-width="0.5" stroke-miterlimit="10"/>
</svg>
